<svg width="40" height="40" viewBox="0 0 40 40" fill="none" xmlns="http://www.w3.org/2000/svg">
<path fill-rule="evenodd" clip-rule="evenodd" d="M20 40C31.0457 40 40 31.0457 40 20C40 8.95431 31.0457 0 20 0C8.95431 0 0 8.95431 0 20C0 31.0457 8.95431 40 20 40ZM16.7678 13.2322C15.7915 12.2559 14.2085 12.2559 13.2322 13.2322C12.2559 14.2085 12.2559 15.7915 13.2322 16.7678L16.4645 20L13.2322 23.2322C12.2559 24.2085 12.2559 25.7915 13.2322 26.7678C14.2085 27.7441 15.7915 27.7441 16.7678 26.7678L20 23.5355L23.2322 26.7678C24.2085 27.7441 25.7915 27.7441 26.7678 26.7678C27.7441 25.7915 27.7441 24.2085 26.7678 23.2322L23.5355 20L26.7678 16.7678C27.7441 15.7915 27.7441 14.2085 26.7678 13.2322C25.7915 12.2559 24.2085 12.2559 23.2322 13.2322L20 16.4645L16.7678 13.2322Z" fill="#2A3721"/>
</svg>
