<svg width="40" height="41" viewBox="0 0 40 41" fill="none" xmlns="http://www.w3.org/2000/svg">
<path d="M40 40.8571C-2.64286 40.8571 7.26785 12.5268 7.22321 8.15178L-3.49691e-06 0.857139L2.32142 0.857139L8.60714 7.21428C12.0893 6.83928 19.7143 4.13392 27.75 10.5178C35.8036 16.9018 35.3571 24.5446 40 40.8571ZM32.8839 36.75C37.3214 38.8482 33.3482 35.9286 33.3482 35.9286C29.3125 33.1428 27.4554 29.3482 25.2946 25.2232C22.4821 19.8482 18.2411 12.75 12.4196 10.25C6.61607 7.75 9.36607 9.13392 11.8839 11.0089C14.4018 12.9018 17.9732 18.7768 20.0089 22.6339C22.8393 27.9911 25.4554 33.2232 32.8839 36.75Z" fill="#ECFFE3"/>
</svg>
