<svg width="45" height="45" viewBox="0 0 45 45" fill="none" xmlns="http://www.w3.org/2000/svg">
<path fill-rule="evenodd" clip-rule="evenodd" d="M45 22.5C45 34.9264 34.9264 45 22.5 45C10.0736 45 0 34.9264 0 22.5C0 10.0736 10.0736 0 22.5 0C34.9264 0 45 10.0736 45 22.5ZM25.3125 11.25C25.3125 12.8033 24.0533 14.0625 22.5 14.0625C20.9467 14.0625 19.6875 12.8033 19.6875 11.25C19.6875 9.6967 20.9467 8.4375 22.5 8.4375C24.0533 8.4375 25.3125 9.6967 25.3125 11.25ZM19.6875 19.6875C18.1342 19.6875 16.875 20.9467 16.875 22.5C16.875 24.0533 18.1342 25.3125 19.6875 25.3125V33.75C19.6875 35.3033 20.9467 36.5625 22.5 36.5625H25.3125C26.8658 36.5625 28.125 35.3033 28.125 33.75C28.125 32.1967 26.8658 30.9375 25.3125 30.9375V22.5C25.3125 20.9467 24.0533 19.6875 22.5 19.6875H19.6875Z" fill="#2A3721"/>
</svg>
