<svg width="40" height="40" viewBox="0 0 40 40" fill="none" xmlns="http://www.w3.org/2000/svg">
<path fill-rule="evenodd" clip-rule="evenodd" d="M20 39.2001C31.0457 39.2001 40 30.6039 40 20C40 9.39618 31.0457 0.800049 20 0.800049C8.9543 0.800049 0 9.39618 0 20C0 30.6039 8.9543 39.2001 20 39.2001ZM29.2678 16.8971C30.2441 15.9598 30.2441 14.4403 29.2678 13.503C28.2914 12.5657 26.7085 12.5657 25.7322 13.503L17.5 21.4059L14.2678 18.303C13.2915 17.3657 11.7085 17.3657 10.7322 18.303C9.75592 19.2403 9.75592 20.7598 10.7322 21.6971L15.7322 26.4971C16.7085 27.4344 18.2914 27.4344 19.2678 26.4971L29.2678 16.8971Z" fill="#ECFFE3"/>
</svg>
