<svg width="38" height="35" viewBox="0 0 38 35" fill="none" xmlns="http://www.w3.org/2000/svg">
<path fill-rule="evenodd" clip-rule="evenodd" d="M14.6424 2.74706C16.5539 -0.6512 21.4466 -0.651201 23.3582 2.74706L37.3089 27.5484C39.1837 30.8814 36.7752 34.9997 32.951 34.9997H5.04952C1.22538 34.9997 -1.18319 30.8814 0.691638 27.5484L14.6424 2.74706ZM21.5001 27.5C21.5001 28.8807 20.3808 30 19.0001 30C17.6193 30 16.5001 28.8807 16.5001 27.5C16.5001 26.1193 17.6193 25 19.0001 25C20.3808 25 21.5001 26.1193 21.5001 27.5ZM19.0001 7.5C17.6193 7.5 16.5001 8.61929 16.5001 10V17.5C16.5001 18.8807 17.6193 20 19.0001 20C20.3808 20 21.5001 18.8807 21.5001 17.5V10C21.5001 8.61929 20.3808 7.5 19.0001 7.5Z" fill="#2A3721"/>
</svg>
